<svg xmlns="http://www.w3.org/2000/svg" version="1.1" xmlns:xlink="http://www.w3.org/1999/xlink" xmlns:svgjs="http://svgjs.com/svgjs" width="512" height="512"><svg id="SvgjsSvg1000" data-name="Layer 1" xmlns="http://www.w3.org/2000/svg" version="1.1" viewBox="0 0 512 512">
  <defs>
    <style>
      .cls-1 {
        fill: #666;
        fill-rule: evenodd;
        stroke-width: 0px;
      }
    </style>
  </defs>
  <path class="cls-1" d="M422.8,229.81c-13.33,0-26.66.26-39.97-.21-2.68-.1-6-2.35-7.78-4.59-32.63-41.01-74.88-60.89-127.38-59.2-66.03,2.12-127.37,55.75-138.09,121.06-14.16,86.17,39.73,162.4,126.33,174.9,81.79,11.8,152.7-44.63,166.6-121.44.1-.57.59-2.88.53-3.41-43.63,0-88.07,0-132.15,0-.55,0-.82-.29-.81-.9v-37.69c0-.45.23-.69.68-.69h171.51c1.39,0,1.63.54,1.69,1.6,2.33,29.81-1.89,58.32-13.02,85.72-31.67,77.99-109.66,125.26-193.34,117.46-85.78-8.01-156.3-75.29-168.26-160.51-14.45-103,53.42-196.12,155.87-213.86,6.74-1.16,12.14-.5,17.84,4.93,10.92,10.42,12.74,9.42,23.87-1.05,2.97-2.8,8.5-4.71,12.55-4.25,47.85,5.47,87.47,27.13,118.94,63.25,9.82,11.26,17.71,23.12,25.18,36.53,1.08,1.86.95,2.38-.79,2.35Z"></path>
  <path class="cls-1" d="M150.99,11.32c52.74,2.65,88.07,38.27,79.32,82.34-6.52-25.65-20.8-41.72-42.89-50.81,15.14,15.54,25.13,33.65,29.63,55.7-17.22,1.75-30.89-4.36-41.94-16.19-18.43-19.75-24.05-44.02-24.12-71.03Z"></path>
  <path class="cls-1" d="M283.09,97.83c2.37-9.67,30.49-29.07,49.78-33.25,0,0-28.26-1.22-54.58,23.95,0-31.62,40.14-42.56,74.44-28.24-9.61,31.51-43.01,55.61-69.64,37.53Z"></path>
  <path class="cls-1" d="M254.73,128.77c-7.44-40.97-.1-79.26,18.49-115.62,2.73-5.33,10.06-5.79,16.46-1.54,6.13,4.06,8.85,11.77,5.04,15.93-25.59,27.95-35.78,61.96-39.32,98.66-.31,1.37-.45,1.72-.68,2.57Z"></path>
</svg><style>@media (prefers-color-scheme: light) { :root { filter: none; } }
@media (prefers-color-scheme: dark) { :root { filter: invert(100%); } }
</style></svg>