<?xml version="1.0" standalone="no"?>
<!DOCTYPE svg PUBLIC "-//W3C//DTD SVG 20010904//EN"
 "http://www.w3.org/TR/2001/REC-SVG-20010904/DTD/svg10.dtd">
<svg version="1.0" xmlns="http://www.w3.org/2000/svg"
 width="700.000000pt" height="700.000000pt" viewBox="0 0 700.000000 700.000000"
 preserveAspectRatio="xMidYMid meet">
<metadata>
Created by potrace 1.14, written by Peter Selinger 2001-2017
</metadata>
<g transform="translate(0.000000,700.000000) scale(0.100000,-0.100000)"
fill="#000000" stroke="none">
<path d="M3785 6868 c-35 -20 -45 -36 -94 -140 -196 -421 -276 -848 -238
-1273 8 -86 27 -208 32 -203 4 4 13 67 20 133 16 166 80 441 140 600 73 196
192 407 308 549 28 33 54 63 57 66 22 18 40 60 40 92 0 113 -174 228 -265 176z"/>
<path d="M2067 6842 c-8 -16 5 -217 19 -299 20 -119 29 -157 56 -236 48 -145
95 -234 181 -347 160 -209 332 -304 562 -309 83 -2 87 -1 80 18 -3 12 -8 32
-11 46 -10 54 -68 214 -110 300 -54 112 -123 217 -208 318 -37 42 -64 77 -61
77 3 0 40 -18 82 -41 229 -121 382 -305 464 -559 25 -77 28 -82 35 -56 9 38
11 208 2 271 -40 287 -252 552 -550 689 -81 38 -209 82 -260 91 -18 4 -51 10
-74 15 -22 5 -67 12 -100 15 -32 4 -69 8 -81 10 -13 2 -24 1 -26 -3z"/>
<path d="M4285 6254 c-11 -2 -51 -12 -90 -20 -197 -45 -352 -190 -383 -361
-10 -59 -1 -89 20 -61 22 29 163 131 237 171 66 35 221 100 221 92 0 -2 17 2
38 9 20 8 62 17 92 20 30 4 69 9 85 12 17 2 -4 -9 -46 -24 -243 -93 -487 -260
-573 -394 -22 -34 -19 -38 49 -71 88 -43 201 -59 285 -42 14 3 37 7 51 10 14
3 52 16 84 31 151 66 287 193 380 353 33 56 85 173 85 192 0 12 -110 48 -232
75 -32 7 -279 14 -303 8z"/>
<path d="M3100 5253 c-14 -2 -70 -13 -125 -25 -911 -189 -1658 -862 -1933
-1743 -59 -188 -90 -348 -111 -562 -9 -86 -6 -413 3 -483 3 -25 9 -67 12 -95
4 -27 8 -59 10 -70 2 -10 6 -37 10 -59 3 -22 7 -43 9 -47 2 -3 7 -21 10 -39
10 -54 44 -178 75 -271 104 -306 295 -632 512 -872 78 -86 204 -210 258 -253
19 -16 37 -31 40 -34 3 -4 37 -30 75 -58 39 -28 75 -55 80 -60 17 -13 218
-138 250 -155 266 -137 502 -219 768 -266 181 -32 193 -33 407 -36 205 -3 322
5 460 29 19 3 49 7 65 10 43 5 226 53 315 81 276 87 608 265 819 440 310 256
531 532 701 874 138 278 231 600 257 891 10 106 10 439 0 463 -6 16 -72 17
-1191 17 l-1185 0 2 -267 2 -268 908 0 908 0 -7 -40 c-13 -84 -63 -264 -99
-360 -273 -734 -924 -1241 -1695 -1321 -69 -7 -356 -6 -390 1 -14 3 -47 7 -75
10 -90 8 -288 55 -407 95 -312 106 -559 260 -788 490 -243 243 -405 519 -502
855 -15 54 -31 113 -33 130 -3 16 -7 41 -10 55 -29 157 -34 223 -31 430 2 118
6 226 9 240 3 14 8 47 12 74 29 233 150 537 302 763 91 135 119 168 253 304
212 214 379 329 670 462 72 33 279 97 380 117 285 56 622 43 925 -35 201 -52
372 -127 570 -248 27 -17 173 -126 210 -157 58 -49 222 -216 276 -280 103
-124 93 -120 392 -121 312 -1 327 -1 327 10 0 20 -165 280 -247 389 -86 115
-320 361 -417 438 -27 21 -64 51 -82 67 -17 15 -36 27 -42 27 -6 0 -12 4 -14
9 -2 7 -115 82 -223 148 -24 15 -205 104 -257 127 -144 63 -343 121 -542 158
-204 37 -261 26 -366 -71 -109 -100 -150 -100 -263 -1 -38 33 -84 67 -103 75
-37 15 -105 24 -144 18z"/>
</g>
</svg>
